<svg id="Layer_1" data-name="Layer 1" xmlns="http://www.w3.org/2000/svg" width="290.4878" height="78.3954" viewBox="0 0 290.4878 78.3954"><defs><style>.cls-1{fill:#fff;}</style></defs><title>Pennysmart_(Print)</title><path class="cls-1" d="M35.1,39.1058c0,6.1608-4.17,10.4035-9.5187,10.4035a7.4954,7.4954,0,0,1-6.6038-3.2459V57.2571H13.9611V29.2561h4.8317l.1108,2.9879a7.5034,7.5034,0,0,1,6.678-3.3579C30.9306,28.8861,35.1,33.0181,35.1,39.1058Zm-5.2018.0365c0-3.5782-2.2138-5.9758-5.4609-5.9758-3.2837,0-5.46,2.3611-5.46,6.0135s2.1761,6.0136,5.46,6.0136C27.6847,45.1936,29.8985,42.7947,29.8985,39.1423Z"/><path class="cls-1" d="M56.5389,40.9874H42.1507c.4065,2.9149,1.9559,4.5749,4.7587,4.5749A6.2311,6.2311,0,0,0,51.78,43.2012l3.874,1.9546a10.25,10.25,0,0,1-8.67,4.3535c-6.05,0-10.1455-4.0955-10.1455-10.182,0-6.2715,3.9847-10.4412,9.924-10.4412s9.9239,3.9847,9.9239,9.9982A14.78,14.78,0,0,1,56.5389,40.9874ZM42.1507,37.593h9.2972c-.4053-3.0621-2.0289-4.7587-4.6857-4.7587C44.1431,32.8343,42.5572,34.5309,42.1507,37.593Z"/><path class="cls-1" d="M78.7515,36.6339V49.1405H73.7348V37.4457c0-2.5461-1.8451-4.2792-4.6492-4.2792s-4.648,1.7331-4.648,4.2792V49.1405H59.4209V29.2561h4.8317l.0743,2.5449a7.9238,7.9238,0,0,1,6.493-2.9149C75.5421,28.8861,78.7515,31.986,78.7515,36.6339Z"/><path class="cls-1" d="M101.8136,36.6339V49.1405H96.7969V37.4457c0-2.5461-1.8451-4.2792-4.6492-4.2792S87.5,34.9,87.5,37.4457V49.1405H82.483V29.2561h4.833l.073,2.5449a7.924,7.924,0,0,1,6.493-2.9149C98.6042,28.8861,101.8136,31.986,101.8136,36.6339Z"/><path class="cls-1" d="M123.88,47.2589c0,6.1985-4.3169,10.367-10.8464,10.367a12.3653,12.3653,0,0,1-7.9316-2.5084l1.1063-3.9482a10.6723,10.6723,0,0,0,6.7145,2.14c3.5417,0,5.9393-2.3976,5.9393-6.0865v-.4065a7.4779,7.4779,0,0,1-6.0135,2.6934c-4.5007,0-7.5629-3.1352-7.5629-7.7844V29.2561h5.018V40.9509a4.2794,4.2794,0,0,0,8.5584,0V29.2561H123.88Z"/><path class="cls-1" d="M133.6241,41.2819,132.222,40.84c-3.5039-1.07-5.2748-2.4353-5.2748-5.3867,0-3.9469,2.9137-6.5673,7.3049-6.5673a11.606,11.606,0,0,1,7.009,1.9558l-2.1031,3.2837a8.6268,8.6268,0,0,0-4.5372-1.2913c-1.5128,0-2.5461.6645-2.5461,1.8073,0,1.07.8483,1.6236,2.5826,2.1773l1.4021.48c3.5782,1.1428,5.607,2.6921,5.607,5.9392,0,3.8-3.0609,6.2716-7.6736,6.2716a10.2331,10.2331,0,0,1-7.0456-2.3611l1.9181-3.0244a9.6849,9.6849,0,0,0,5.2018,1.4385c1.4763,0,2.5083-.7387,2.5083-1.8815C136.5754,42.5,135.58,41.91,133.6241,41.2819Z"/><path class="cls-1" d="M175.9791,36.6339V49.1405h-5.0167V37.4457a4.0814,4.0814,0,1,0-8.1531,0V49.1405h-5.018V37.4457a4.0814,4.0814,0,1,0-8.1531,0V49.1405h-5.0168V29.2561h4.833l.073,2.3611a7.2624,7.2624,0,0,1,5.9393-2.7311,6.9628,6.9628,0,0,1,6.0135,3.0256,7.7175,7.7175,0,0,1,6.42-3.0256C172.6955,28.8861,175.9791,31.986,175.9791,36.6339Z"/><path class="cls-1" d="M199.7447,49.1405h-4.8329l-.1108-2.9879a7.4514,7.4514,0,0,1-6.678,3.3567c-5.3855,0-9.5175-4.205-9.5175-10.2185,0-6.162,4.132-10.4047,9.5175-10.4047a7.502,7.502,0,0,1,6.678,3.3579l.1108-2.9879h4.8329ZM194.7268,39.18c0-3.5793-2.2127-6.0135-5.46-6.0135-3.2836,0-5.46,2.3976-5.46,6.05,0,3.5781,2.1761,5.977,5.46,5.977C192.5141,45.1936,194.7268,42.7582,194.7268,39.18Z"/><path class="cls-1" d="M208.64,31.9117c1.5871-1.9546,4.0955-3.0256,7.3049-3.0256l-.3323,4.6127c-4.1319,0-6.8618,1.9911-6.8618,4.98V49.1405h-5.0167V29.2561h4.8329Z"/><path class="cls-1" d="M228.6755,44.529v4.0577a12.91,12.91,0,0,1-5.0909.9226c-3.6524,0-6.0878-2.5449-6.0878-6.2716V23.4264h5.018v5.83h5.865V33.35h-5.865v8.8542a2.7019,2.7019,0,0,0,2.6921,2.9891A8.93,8.93,0,0,0,228.6755,44.529Z"/><path class="cls-1" d="M246.89,13.9611h-4.2538V64.4343A20.8385,20.8385,0,0,0,263.33,43.5974h13.1966A29.6363,29.6363,0,0,0,246.89,13.9611Zm0,21.82a7.7978,7.7978,0,0,1,6.5445,3.5626H246.89Zm0,23.8262v-16.01h12.2249A16.61,16.61,0,0,1,246.89,59.6074Zm11.2511-20.2636A12.032,12.032,0,0,0,246.89,31.5584V26.9716a16.6175,16.6175,0,0,1,16.0557,12.3722Zm9.1523,0A20.8461,20.8461,0,0,0,246.89,22.7568V18.2139a25.37,25.37,0,0,1,24.9993,21.13Z"/></svg>